<?xml version="1.0" encoding="utf-8"?>
<!-- Generator: Adobe Illustrator 23.0.5, SVG Export Plug-In . SVG Version: 6.00 Build 0)  -->
<svg version="1.1" id="Layer_1" xmlns="http://www.w3.org/2000/svg" xmlns:xlink="http://www.w3.org/1999/xlink" x="0px" y="0px"
	 viewBox="0 0 383.6 415.9" style="enable-background:new 0 0 383.6 415.9;" xml:space="preserve">
<style type="text/css">
	.st0{fill:#212552;}
	.st1{fill:#92D6E9;}
	
		.st2{opacity:0.3;fill:#0A1E2B;stroke:#0A1E2B;stroke-width:6;stroke-linecap:round;stroke-linejoin:round;stroke-miterlimit:10;enable-background:new    ;}
	.st3{fill:none;stroke:#212552;stroke-width:6;stroke-linecap:round;stroke-linejoin:round;stroke-miterlimit:10;}
	.st4{fill:#CBEDF9;}
	.st5{fill:#E8F9FF;}
	
		.st6{opacity:0.23;fill:#0A1E2B;stroke:#0A1E2B;stroke-width:6;stroke-linecap:round;stroke-linejoin:round;stroke-miterlimit:10;enable-background:new    ;}
	.st7{fill:none;stroke:#212552;stroke-width:10;stroke-linecap:round;stroke-linejoin:round;stroke-miterlimit:10;}
	.st8{fill:#FFEA9E;}
	.st9{fill:#EDC75D;}
	.st10{fill:none;stroke:#212552;stroke-width:8;stroke-linecap:round;stroke-linejoin:round;stroke-miterlimit:10;}
	.st11{fill:#5F9E71;stroke:#212552;stroke-width:6;stroke-linecap:round;stroke-linejoin:round;stroke-miterlimit:10;}
	.st12{fill:#90C49E;}
	.st13{fill:#FFFFFF;}
</style>
<ellipse id="XMLID_75_" class="st0" cx="182.6" cy="393.1" rx="182.6" ry="22.8"/>
<g id="XMLID_3_">
	<path id="XMLID_20_" class="st1" d="M142.1,377v-7.4c0-3.3-2.7-6-6-6h-66c-3.3,0-6,2.7-6,6v22c0,3.3,2.7,6,6,6H114
		c4.8,0,9.4-1.9,12.8-5.3L142.1,377z"/>
	<path id="XMLID_50_" class="st2" d="M136.1,363.6h-66c-3.3,0-6,2.7-6,6V390h65l13-13v-7.4C142.1,366.3,139.4,363.6,136.1,363.6z"/>
	<path id="XMLID_18_" class="st1" d="M223.1,377v-7.4c0-3.3,2.7-6,6-6h66c3.3,0,6,2.7,6,6v22c0,3.3-2.7,6-6,6h-43.9
		c-4.8,0-9.4-1.9-12.8-5.3L223.1,377z"/>
	<path id="XMLID_51_" class="st2" d="M295.1,363.6h-66c-3.3,0-6,2.7-6,6v7.4l13,13h65v-20.4C301.1,366.3,298.4,363.6,295.1,363.6z"
		/>
	<path id="XMLID_27_" class="st3" d="M142.1,377v-7.4c0-3.3-2.7-6-6-6h-66c-3.3,0-6,2.7-6,6v22c0,3.3,2.7,6,6,6H114
		c4.8,0,9.4-1.9,12.8-5.3L142.1,377z"/>
	<path id="XMLID_26_" class="st3" d="M223.1,377v-7.4c0-3.3,2.7-6,6-6h66c3.3,0,6,2.7,6,6v22c0,3.3-2.7,6-6,6h-43.9
		c-4.8,0-9.4-1.9-12.8-5.3L223.1,377z"/>
	<path id="XMLID_2_" class="st4" d="M312.6,377.1h-260c-22.1,0-40-17.9-40-40v-260c0-22.1,17.9-40,40-40h260c22.1,0,40,17.9,40,40
		v260C352.6,359.2,334.7,377.1,312.6,377.1z"/>
	<path id="XMLID_38_" class="st5" d="M312.6,37.1h-260c-22.1,0-40,17.9-40,40v23c0-22.1,17.9-40,40-40h260c22.1,0,40,17.9,40,40v-23
		C352.6,55,334.7,37.1,312.6,37.1z"/>
	<polygon id="XMLID_58_" class="st6" points="251.3,36.7 276.9,36.7 259.6,73.1 	"/>
	<path id="XMLID_45_" class="st1" d="M312.6,354.1h-260c-22.1,0-40-17.9-40-40v23c0,22.1,17.9,40,40,40h260c22.1,0,40-17.9,40-40
		v-23C352.6,336.2,334.7,354.1,312.6,354.1z"/>
	<path id="XMLID_19_" class="st3" d="M312.6,377.1h-260c-22.1,0-40-17.9-40-40v-260c0-22.1,17.9-40,40-40h260c22.1,0,40,17.9,40,40
		v260C352.6,359.2,334.7,377.1,312.6,377.1z"/>
	<path id="XMLID_82_" class="st5" d="M300.6,73.1h-236c-8.8,0-16,7.2-16,16v8c0-8.8,7.2-13,16-13h236c8.8,0,16,4.2,16,13v-8
		C316.6,80.2,309.4,73.1,300.6,73.1z"/>
	<path id="XMLID_83_" class="st1" d="M300.6,328.1h-236c-8.8,0-16-7.2-16-16v13c0,8.8,7.2,16,16,16h236c8.8,0,16-7.2,16-16v-13
		C316.6,320.9,309.4,328.1,300.6,328.1z"/>
	<path id="XMLID_7_" class="st3" d="M64.6,341.1c-8.8,0-16-7.2-16-16v-236c0-8.8,7.2-16,16-16h236c8.8,0,16,7.2,16,16v236
		c0,8.8-7.2,16-16,16H64.6z"/>
	<path id="XMLID_48_" class="st6" d="M287.9,302.2h-2c-2.2,0-4-1.8-4-4v-152c0-2.2,1.8-4,4-4h2c2.2,0,4,1.8,4,4v152
		C291.9,300.4,290.1,302.2,287.9,302.2z"/>
	<path id="XMLID_13_" class="st1" d="M287.9,282.2h-2c-2.2,0-4-1.8-4-4v-152c0-2.2,1.8-4,4-4h2c2.2,0,4,1.8,4,4v152
		C291.9,280.4,290.1,282.2,287.9,282.2z"/>
	<path id="XMLID_14_" class="st3" d="M287.9,282.2h-2c-2.2,0-4-1.8-4-4v-152c0-2.2,1.8-4,4-4h2c2.2,0,4,1.8,4,4v152
		C291.9,280.4,290.1,282.2,287.9,282.2z"/>
	<circle id="XMLID_39_" class="st6" cx="182.6" cy="215.1" r="65"/>
	<circle id="XMLID_32_" class="st4" cx="182.6" cy="207.1" r="65"/>
	<circle id="XMLID_5_" class="st3" cx="182.6" cy="207.1" r="65"/>
	<circle id="XMLID_34_" class="st1" cx="182.6" cy="207.1" r="54"/>
	<line id="XMLID_10_" class="st7" x1="182.6" y1="166.1" x2="182.6" y2="248.1"/>
	<line id="XMLID_8_" class="st7" x1="223.6" y1="207.1" x2="141.6" y2="207.1"/>
	<line id="XMLID_12_" class="st7" x1="211.6" y1="178.1" x2="153.6" y2="236.1"/>
	<line id="XMLID_11_" class="st7" x1="211.6" y1="236.1" x2="153.6" y2="178.1"/>
	<path id="XMLID_37_" class="st2" d="M182.6,254.8L182.6,254.8c-13.8,0-25-11.2-25-25v-25h50v25
		C207.6,243.6,196.4,254.8,182.6,254.8z"/>
	<path id="XMLID_46_" class="st6" d="M48.6,169.6L48.6,169.6c-4.4,0-8-3.6-8-8v-24c0-4.4,3.6-8,8-8l0,0c4.4,0,8,3.6,8,8v24
		C56.6,166,53,169.6,48.6,169.6z"/>
	<path id="XMLID_52_" class="st6" d="M48.6,300.1L48.6,300.1c-4.4,0-8-3.6-8-8v-24c0-4.4,3.6-8,8-8l0,0c4.4,0,8,3.6,8,8v24
		C56.6,296.5,53,300.1,48.6,300.1z"/>
	<path id="XMLID_36_" class="st1" d="M48.6,161.6L48.6,161.6c-4.4,0-8-3.6-8-8v-24c0-4.4,3.6-8,8-8l0,0c4.4,0,8,3.6,8,8v24
		C56.6,158,53,161.6,48.6,161.6z"/>
	<path id="XMLID_33_" class="st1" d="M48.6,292.6L48.6,292.6c-4.4,0-8-3.6-8-8v-24c0-4.4,3.6-8,8-8l0,0c4.4,0,8,3.6,8,8v24
		C56.6,289,53,292.6,48.6,292.6z"/>
	<path id="XMLID_15_" class="st3" d="M48.6,161.6L48.6,161.6c-4.4,0-8-3.6-8-8v-24c0-4.4,3.6-8,8-8l0,0c4.4,0,8,3.6,8,8v24
		C56.6,158,53,161.6,48.6,161.6z"/>
	<path id="XMLID_17_" class="st3" d="M48.6,292.6L48.6,292.6c-4.4,0-8-3.6-8-8v-24c0-4.4,3.6-8,8-8l0,0c4.4,0,8,3.6,8,8v24
		C56.6,289,53,292.6,48.6,292.6z"/>
	<circle id="XMLID_29_" class="st8" cx="182.6" cy="207.1" r="25"/>
	<circle id="XMLID_72_" class="st9" cx="182.6" cy="207.1" r="11.2"/>
	<circle id="XMLID_9_" class="st10" cx="182.6" cy="207.1" r="23"/>
	<path id="XMLID_54_" class="st11" d="M261.6,73.1h-68.5V20.9c0-4,3.2-7.2,7.2-7.2h54c4,0,7.2,3.2,7.2,7.2L261.6,73.1L261.6,73.1z"
		/>
	<path id="XMLID_67_" class="st12" d="M248.1,26.1h-14.6c0,3.4-2.7,6.1-6.1,6.1s-6.1-2.7-6.1-6.1h-14.7c-1.7,0-3.2,1.4-3.2,3.2v43.8
		h47.8V29.3C251.3,27.5,249.8,26.1,248.1,26.1z"/>
	<ellipse id="XMLID_56_" class="st13" cx="227.4" cy="62.4" rx="15" ry="14.3"/>
	<path id="XMLID_53_" class="st3" d="M261.6,73.1h-68.5V20.9c0-4,3.2-7.2,7.2-7.2h54c4,0,7.2,3.2,7.2,7.2L261.6,73.1L261.6,73.1z"/>
</g>
<g id="XMLID_6_">
	<line id="XMLID_22_" class="st3" x1="380.6" y1="54.9" x2="360.4" y2="52.1"/>
	<line id="XMLID_21_" class="st3" x1="332.5" y1="23.2" x2="329.5" y2="3"/>
	<line id="XMLID_16_" class="st3" x1="352.5" y1="30.5" x2="367" y2="16"/>
</g>
</svg>
